# xmcd CD database file
#
# Track frame offsets:
#	150
#	17192
#	29477
#	42090
#	55307
#	67905
#	80687
#	94235
#	107117
#	119880
#	134830
#	148340
#	162667
#	174087
#	188672
#	200957
#	215300
#	230435
#	242895
#	256765
#	269802
#	281827
#	293932
#	304425
#
# Disc length: 4231 seconds
#
# Revision: 0
# Processed by: cddbd v1.5.1PL0 Copyright (c) Steve Scherf et al.
# Submitted via: CDex 1.51
#
DISCID=88108518
DTITLE=Various Artist - Small Band Swing Made in Sweden Vol. 1 (1935-1937) [JazzDocument #7993, 1996]
DYEAR=1935
DGENRE=Jazz
TTITLE0=Black and Tan Fantasy
TTITLE1=Four Strings
TTITLE2=Slow Motion
TTITLE3=Some of These Days
TTITLE4=Some of These Days
TTITLE5=Gloaming
TTITLE6=I Can't Give You Anything But Love, Baby
TTITLE7=Basin Street Blues
TTITLE8=Wabash Blues
TTITLE9=Louisiana
TTITLE10=Easy Swing
TTITLE11=Basin Street Blues
TTITLE12=Mutiny in the Parlour
TTITLE13=There Must Be Somebody Else
TTITLE14=Cross Patch
TTITLE15=Sing, Baby, SIng
TTITLE16=You Turned the Tables on Me
TTITLE17=St. Louis Blues
TTITLE18=Swingin' Around
TTITLE19=After You've Gone
TTITLE20=Sweet Sue I
TTITLE21=Sweet Sue II
TTITLE22=My Mama's in Town
TTITLE23=The Night Ride
EXTD=YEAR: 1935
EXTT0=
EXTT1=
EXTT2=
EXTT3=
EXTT4=
EXTT5=
EXTT6=
EXTT7=
EXTT8=
EXTT9=
EXTT10=
EXTT11=
EXTT12=
EXTT13=
EXTT14=
EXTT15=
EXTT16=
EXTT17=
EXTT18=
EXTT19=
EXTT20=
EXTT21=
EXTT22=
EXTT23=
PLAYORDER=
